Coordinates
version=1
nRows=41
nColumns=38
inDegrees=no

Units are S.I. units (second, meters, Newtons, ...)
If the header above contains a line with 'inDegrees', this indicates whether rotational values are in degrees (yes) or radians (no).

endheader
time	pelvis_tilt	pelvis_list	pelvis_rotation	pelvis_tx	pelvis_ty	pelvis_tz	hip_flexion_r	hip_adduction_r	hip_rotation_r	knee_angle_r	ankle_angle_r	subtalar_angle_r	mtp_angle_r	hip_flexion_l	hip_adduction_l	hip_rotation_l	knee_angle_l	ankle_angle_l	subtalar_angle_l	mtp_angle_l	lumbar_extension	lumbar_bending	lumbar_rotation	arm_flex_r	arm_add_r	arm_rot_r	elbow_flex_r	pro_sup_r	wrist_flex_r	wrist_dev_r	arm_flex_l	arm_add_l	arm_rot_l	elbow_flex_l	pro_sup_l	wrist_flex_l	wrist_dev_l
15	2.14022	1.52675	-0.856351	0.728563	-1.22508	0.919036	-0.174063	-0.034777	-0.289702	0.448355	0.523599	0	0	0.204195	-0.129766	-0.374724	0.401029	0.0417283	0	0	-0.338603	-0.0589036	0.270308	0.150016	-0.448254	-0.0774794	2.2905	0.528072	0	0	0.072613	-0.25565	-0.141432	2.23006	0.770591	0	0
15.01	-0.833041	1.49328	2.10255	0.734304	-1.22603	0.90392	-0.1413	-0.0505139	-0.173652	0.306225	0.523599	0	0	0.305179	-0.0707799	-0.469572	0.395779	0.0461188	0	0	-0.220416	-0.154079	0.267484	0.135597	-0.406832	-0.0804778	2.27823	0.559438	0	0	0.0835145	-0.301336	-0.135586	2.24855	0.762214	0	0
15.02	-0.905065	1.4758	2.18779	0.730287	-1.22067	0.901842	-0.124836	-0.109966	-0.268906	0.337048	0.194991	0	0	0.305362	-0.0398479	-0.476143	0.374457	0.0482643	0	0	-0.203365	-0.165489	0.250965	0.132467	-0.406381	-0.0837566	2.27027	0.560884	0	0	0.0856741	-0.30179	-0.127938	2.24553	0.748071	0	0
15.03	-1.53093	1.51875	2.82985	0.728997	-1.21456	0.911971	-0.222991	-0.101887	-0.352197	0.323621	0.185127	0	0	0.247527	-0.0510966	-0.462922	0.406577	0.0396849	0	0	-0.273794	-0.160391	0.229982	0.143005	-0.40216	-0.0885891	2.25222	0.54038	0	0	0.117372	-0.276634	-0.225784	2.47833	0.781473	0	0
15.04	-0.920377	1.48129	2.2048	0.728685	-1.212	0.90361	-0.124599	-0.112488	-0.278856	0.364785	0.186709	0	0	0.302201	-0.0456263	-0.552688	0.412222	0.0705401	0	0	-0.200959	-0.166442	0.248518	0.132104	-0.399884	-0.0952557	2.2472	0.543275	0	0	0.0977596	-0.302355	-0.111218	2.23368	0.779308	0	0
15.05	-0.746679	1.51875	2.03503	0.72807	-1.20847	0.909191	-0.148043	-0.0617628	-0.227406	0.395211	0.523599	0	0	0.269952	-0.075855	-0.547799	0.410659	0.0708423	0	0	-0.230182	-0.135059	0.249177	0.139162	-0.402107	-0.100888	2.23328	0.547676	0	0	0.108745	-0.293111	-0.108324	2.21378	0.789651	0	0
15.06	-0.828622	1.50911	2.12866	0.724838	-1.20251	0.906558	-0.142568	-0.105762	-0.314291	0.408765	0.18153	0	0	0.240876	-0.0365537	-0.459428	0.330165	0.0614841	0	0	-0.216373	-0.142961	0.232662	0.1374	-0.402664	-0.102294	2.22659	0.552922	0	0	0.127844	-0.27184	-0.200768	2.47179	0.789651	0	0
15.07	-1.30601	1.50322	2.60972	0.724124	-1.20036	0.912372	-0.15041	-0.137269	-0.312248	0.431363	0.169404	0	0	0.241071	-0.0274865	-0.482306	0.386316	0.0436951	0	0	-0.241537	-0.174108	0.223106	0.144942	-0.389651	-0.106346	2.20777	0.555186	0	0	0.128724	-0.303059	-0.0441182	2.23429	0.761657	0	0
15.08	-0.662197	1.52345	1.96709	0.722889	-1.19758	0.912054	-0.111612	-0.0731641	-0.232228	0.47922	0.523599	0	0	0.255318	-0.075842	-0.598339	0.40909	0.0727132	0	0	-0.226845	-0.130358	0.23408	0.143408	-0.397063	-0.113452	2.19836	0.554755	0	0	0.13572	-0.292363	0.0619639	2.26779	0.256735	0	0
15.09	-1.361	1.53801	2.67814	0.71959	-1.19004	0.91575	-0.163669	-0.120113	-0.327232	0.470496	0.147758	0	0	0.209841	-0.0493877	-0.524917	0.383066	0.0597854	0	0	-0.251471	-0.137496	0.218795	0.142428	-0.397803	-0.116696	2.1869	0.554474	0	0	0.141734	-0.29037	0.119099	2.28367	0.234546	0	0
15.1	-2.2505	1.54752	-2.71346	0.717131	-1.18603	0.920103	-0.167465	-0.127312	-0.318383	0.504316	0.120206	0	0	0.185266	-0.0601062	-0.57334	0.408093	0.0692127	0	0	-0.280461	-0.129556	0.208644	0.156965	-0.401382	-0.11219	2.1711	0.554278	0	0	0.161667	-0.254724	-0.162334	2.42872	0.26303	0	0
15.11	-1.68738	1.54437	3.00775	0.717104	-1.18135	0.917362	-0.144615	-0.13276	-0.314893	0.536433	0.128265	0	0	0.187193	-0.0466642	-0.583409	0.391053	0.078014	0	0	-0.257063	-0.138498	0.206359	0.153451	-0.395813	-0.114969	2.16029	0.554824	0	0	0.164915	-0.260593	-0.155781	2.43201	0.26303	0	0
15.12	-2.86266	1.54654	-2.08887	0.713718	-1.17716	0.92246	-0.160621	-0.137983	-0.378533	0.572608	0.106939	0	0	0.149565	-0.0518608	-0.578344	0.373501	0.0716692	0	0	-0.2849	-0.119342	0.196013	0.162342	-0.401211	-0.115181	2.14514	0.55708	0	0	0.171409	-0.25004	-0.148574	2.41808	0.295782	0	0
15.13	-2.70536	1.54936	-2.24777	0.711361	-1.17488	0.924208	-0.153663	-0.173114	-0.460585	0.590484	0.0764441	0	0	0.147713	-0.048019	-0.569387	0.368758	0.0654774	0	0	-0.278645	-0.118877	0.202935	0.162182	-0.403812	-0.12394	2.13103	0.557265	0	0	0.169282	-0.270305	0.140894	2.23877	0.253493	0	0
15.14	-2.26814	1.55774	-2.68511	0.710432	-1.17133	0.922534	-0.117304	-0.168378	-0.420123	0.624659	0.0654878	0	0	0.150093	-0.0414549	-0.57933	0.354608	0.0732851	0	0	-0.261231	-0.118868	0.201964	0.164343	-0.403796	-0.124629	2.11906	0.557466	0	0	0.173103	-0.270189	0.138459	2.22966	0.25213	0	0
15.15	2.6917	1.53084	-1.34677	0.70756	-1.16788	0.928254	-0.123113	-0.161202	-0.425995	0.668615	0.0197584	0	0	0.101151	-0.0533661	-0.569982	0.331133	0.0679059	0	0	-0.303039	-0.0960761	0.181207	0.186128	-0.408613	-0.113944	2.10061	0.571858	0	0	0.191817	-0.237125	-0.12463	2.38683	0.658017	0	0
15.16	2.59695	1.53901	-1.2312	0.703287	-1.16658	0.928545	-0.0816032	-0.166104	-0.412155	0.723714	0.000372997	0	0	0.0539871	-0.0184944	-0.504118	0.194333	0.0255829	0	0	-0.299123	-0.0904469	0.15822	0.198378	-0.410199	-0.11422	2.08414	0.554799	0	0	0.202373	-0.234752	-0.117333	2.37828	0.25213	0	0
15.17	2.6393	1.54441	-1.2859	0.703591	-1.16143	0.926415	-0.021838	-0.175876	-0.33423	0.807599	-0.0144544	0	0	0.0582054	-0.00702891	-0.500041	0.213447	0.0488941	0	0	-0.282618	-0.0972416	0.167826	0.197816	-0.412914	-0.11369	2.0735	0.55509	0	0	0.202379	-0.235455	-0.111214	2.37961	0.25213	0	0
15.18	2.34701	1.50317	-1.00423	0.704788	-1.15971	0.931986	-0.027913	-0.127423	-0.274231	0.827673	-0.0522984	0	0	-0.00626691	-0.0427511	-0.426979	0.165831	0.0310508	0	0	-0.317695	-0.0700485	0.184766	0.214379	-0.41894	-0.111244	2.05862	0.556278	0	0	0.193052	-0.2561	0.00284859	2.11723	0.327489	0	0
15.19	2.2724	1.53218	-0.921487	0.702146	-1.15332	0.927696	0.016209	-0.13952	-0.263332	0.866413	-0.0529569	0	0	0.000125707	-0.0181069	-0.379409	0.143628	0.0397814	0	0	-0.276284	-0.0807113	0.174467	0.203514	-0.419792	-0.110659	2.04648	0.615132	0	0	0.193483	-0.253212	0.00402039	2.10028	0.53385	0	0
15.2	2.03478	1.5108	-0.678746	0.70027	-1.15498	0.932244	0.0497438	-0.146809	-0.329097	0.943304	0.523599	0	0	-0.0145307	-0.0417654	-0.407778	0.123657	0.0241252	0	0	-0.296719	-0.0568904	0.171273	0.227406	-0.423941	-0.106815	2.02477	0.621518	0	0	0.219459	-0.2373	-0.00953169	2.07658	0.492945	0	0
15.21	3.1377	1.511	-1.76829	0.695408	-1.14742	0.932265	0.0156136	-0.227704	-0.288837	0.932826	-0.0816132	0	0	-0.0465745	0.0297201	-0.370323	0.121551	0.00660861	0	0	-0.311895	-0.116273	0.134614	0.234165	-0.416201	-0.10393	2.00841	0.63572	0	0	0.236314	-0.227944	-0.0814431	2.35246	0.363341	0	0
15.22	3.01894	1.51465	-1.65143	0.695301	-1.14522	0.932487	0.0299521	-0.213939	-0.274669	0.922105	-0.11294	0	0	-0.0639188	0.030252	-0.34444	0.0795481	-0.0114047	0	0	-0.307986	-0.111814	0.13602	0.243338	-0.415886	-0.110333	1.98942	0.552385	0	0	0.243846	-0.226591	-0.0743213	2.34525	0.787957	0	0
15.23	2.5273	1.45853	-1.17544	0.700311	-1.14567	0.940368	0.0633001	-0.112387	-0.213448	1.07229	0.523599	0	0	-0.132192	-0.0286005	-0.31414	0.0602011	-0.0158326	0	0	-0.364346	-0.0736636	0.164062	0.265506	-0.423482	-0.10647	1.97269	0.55334	0	0	0.262109	-0.220105	-0.0670411	2.33562	0.787957	0	0
15.24	2.37091	1.47058	-1.03075	0.700368	-1.14428	0.938933	0.0934938	-0.119186	-0.230396	1.06085	0.523599	0	0	-0.123403	-0.0347979	-0.305488	0.046939	-0.0155404	0	0	-0.340494	-0.0661742	0.183553	0.264681	-0.431285	-0.104149	1.96006	0.679194	0	0	0.263704	-0.237755	0.204684	2.14559	0.363341	0	0
15.25	2.41163	1.49588	-1.05766	0.699204	-1.13879	0.93413	0.15251	-0.116786	-0.183284	1.15602	0.523599	0	0	-0.113189	-0.0143596	-0.284697	0.0319738	-0.00856468	0	0	-0.307716	-0.0812982	0.165625	0.261279	-0.426574	-0.116336	1.94352	0.542506	0	0	0.266771	-0.243193	0.221555	2.14678	0.292562	0	0
15.26	2.65112	1.48668	-1.27735	0.694784	-1.1338	0.936201	0.0965985	-0.147543	-0.19601	1.04349	-0.0919862	0	0	-0.142296	0.0084341	-0.271511	0.0144925	-0.0215194	0	0	-0.322581	-0.0884918	0.141145	0.269109	-0.431403	-0.104727	1.92905	0.657298	0	0	0.273185	-0.238706	0.23323	2.13973	0.325713	0	0
15.27	2.54852	1.48413	-1.16582	0.693435	-1.13178	0.935549	0.114872	-0.13659	-0.19565	1.06044	-0.0761143	0	0	-0.13802	-0.00347437	-0.274792	0.0263943	-0.00493767	0	0	-0.325266	-0.0795251	0.123796	0.291995	-0.431438	-0.0996605	1.90822	0.542717	0	0	0.283058	-0.216376	-0.0316353	2.3154	0.34028	0	0
15.28	2.67713	1.48034	-1.29391	0.692596	-1.12989	0.938142	0.134517	-0.150223	-0.185558	1.09683	-0.0466892	0	0	-0.141319	0.00806506	-0.266569	0.0233837	-0.0317033	0	0	-0.332868	-0.0899652	0.12528	0.299338	-0.432196	-0.0961642	1.891	0.629665	0	0	0.286593	-0.2367	0.196242	2.1011	0.327306	0	0
15.29	2.6825	1.47313	-1.29592	0.692247	-1.12794	0.939875	0.13186	-0.1391	-0.178481	1.07345	-0.0402871	0	0	-0.150329	0.0058917	-0.25913	0.019092	-0.0427539	0	0	-0.34275	-0.0902374	0.117161	0.317423	-0.428579	-0.0958755	1.86807	0.542688	0	0	0.286063	-0.239312	0.122096	2.05686	0.338955	0	0
15.3	2.69269	1.50854	-1.30374	0.689446	-1.1275	0.936018	0.206279	-0.193354	-0.227351	1.12936	-0.0204421	0	0	-0.108428	0.0207785	-0.24937	0.0267926	-0.03807	0	0	-0.310711	-0.100724	0.105084	0.332599	-0.429832	-0.0883869	1.84814	0.542083	0	0	0.306201	-0.21115	-0.0131112	2.28558	0.283353	0	0
15.31	2.52335	1.5071	-1.13153	0.688381	-1.12515	0.936569	0.211183	-0.171088	-0.218605	1.09716	-0.0210878	0	0	-0.113142	0.0110787	-0.242736	0.0191798	-0.0381567	0	0	-0.304854	-0.0875545	0.110786	0.33705	-0.435503	-0.08584	1.83258	0.602692	0	0	0.307151	-0.224005	0.228927	2.08167	0.35749	0	0
15.32	2.67816	1.50697	-1.27711	0.686869	-1.1241	0.938275	0.221084	-0.181594	-0.219861	1.09453	-0.0114018	0	0	-0.124465	0.0235521	-0.256413	0.00247596	-0.0562696	0	0	-0.313862	-0.0972983	0.0986538	0.351043	-0.431516	-0.0893667	1.81254	0.543294	0	0	0.32373	-0.221829	0.253657	2.077	0.270594	0	0
15.33	2.68908	1.50173	-1.28384	0.686536	-1.12209	0.938559	0.227762	-0.179616	-0.220759	1.09076	0.00215879	0	0	-0.134756	0.0228444	-0.249493	0	-0.0562182	0	0	-0.323548	-0.098972	0.0838052	0.373223	-0.428086	-0.0731693	1.79469	0.544359	0	0	0.33102	-0.204299	-0.00251602	2.26226	0.281026	0	0
15.34	2.60713	1.50274	-1.19972	0.685514	-1.11949	0.938741	0.2412	-0.173442	-0.221387	1.08098	0.0123862	0	0	-0.136578	0.0195365	-0.248759	0	-0.055907	0	0	-0.316617	-0.091607	0.0900338	0.37665	-0.433474	-0.071173	1.782	0.573618	0	0	0.335827	-0.217758	0.249072	2.06293	0.313629	0	0
15.35	2.62965	1.49684	-1.21839	0.685247	-1.11745	0.939055	0.244778	-0.17193	-0.224509	1.07115	0.0255007	0	0	-0.147936	0.0191884	-0.244285	0	-0.0552271	0	0	-0.327327	-0.0934026	0.0768112	0.399056	-0.428856	-0.0578625	1.76541	0.553451	0	0	0.344748	-0.201332	0.00139749	2.25127	0.286432	0	0
15.36	2.20961	1.51027	-0.798988	0.686028	-1.11572	0.936156	0.286889	-0.147008	-0.222081	1.06241	0.0383512	0	0	-0.122698	-0.00150422	-0.233767	0	-0.0415192	0	0	-0.293738	-0.0768422	0.0900305	0.398086	-0.43106	-0.0608175	1.75331	0.559881	0	0	0.346648	-0.217781	0.246329	2.05302	0.286432	0	0
15.37	2.55258	1.52354	-1.14991	0.68439	-1.11423	0.93594	0.296928	-0.193682	-0.250888	1.06009	0.0580407	0	0	-0.125292	0.0305039	-0.249655	0	-0.0507839	0	0	-0.295207	-0.100774	0.0907529	0.41333	-0.432897	-0.0533061	1.74165	0.559584	0	0	0.355869	-0.216166	0.247201	2.0462	0.300663	0	0
15.38	2.19807	1.51912	-0.785181	0.685436	-1.11091	0.934376	0.313886	-0.159211	-0.235566	1.05095	0.0766796	0	0	-0.1267	0.00779945	-0.231308	0	-0.0382641	0	0	-0.284306	-0.0847597	0.0857909	0.41834	-0.42895	-0.049512	1.73013	0.559071	0	0	0.361333	-0.219756	0.2506	2.03746	0.301213	0	0
15.39	2.18409	1.52172	-0.785717	0.685174	-1.10943	0.934412	0.321951	-0.169393	-0.254837	1.02334	0.0804401	0	0	-0.125159	0.00823387	-0.213547	0	-0.0337355	0	0	-0.282747	-0.0874842	0.0981833	0.432846	-0.432108	-0.0413877	1.71709	0.55782	0	0	0.367653	-0.215476	0.249671	2.02445	0.300514	0	0
15.4	2.06657	1.49944	-0.667098	0.688393	-1.10757	0.934889	0.358757	-0.105922	-0.218569	1.10418	0.523599	0	0	-0.138087	-0.02054	-0.223502	0	-0.0181497	0	0	-0.296143	-0.0728929	0.0934143	0.45268	-0.421801	-0.0282346	1.70282	0.572052	0	0	0.377131	-0.20631	0.00470327	2.21651	0.278837	0	0
